<svg width="21" height="21" viewBox="0 0 21 21" fill="none" xmlns="http://www.w3.org/2000/svg">
<path d="M20.5 10.75C20.5 16.1348 16.1348 20.5 10.75 20.5C5.36523 20.5 1 16.1348 1 10.75C1 5.36523 5.36523 1 10.75 1C16.1348 1 20.5 5.36523 20.5 10.75Z" stroke="white"/>
<path d="M12.6101 7.37192C11.3871 7.03367 10.1129 7.03367 8.88996 7.37192C8.86905 7.37769 8.84814 7.38359 8.82734 7.38959C8.69896 7.42653 8.56087 7.40142 8.45413 7.32115C7.16758 6.35376 6.49555 6.39696 6.32925 6.42925C6.30252 6.43443 6.28221 6.45438 6.27297 6.47998C6.27063 6.48645 6.26832 6.49291 6.26601 6.49939C6.00113 7.24547 5.96067 8.07214 6.14887 8.84604C6.15984 8.89111 6.17156 8.93596 6.18406 8.98059C6.18488 8.98352 6.18571 8.98644 6.18653 8.98937C6.19737 9.02772 6.18942 9.06899 6.16516 9.10074C6.14667 9.12479 6.12847 9.14916 6.11057 9.17375C5.59856 9.87673 5.32153 10.7731 5.33376 11.6976C5.33376 15.4516 7.28766 16.3138 9.16296 16.5687L9.20174 16.5738C10.246 16.7299 11.247 16.7203 12.2878 16.5436L12.3142 16.5404C14.1985 16.3117 16.1663 15.4719 16.1663 11.6976C16.1785 10.7731 15.9015 9.87673 15.3895 9.17375C15.3731 9.15122 15.3564 9.12879 15.3395 9.10658L15.3382 9.10496C15.312 9.07062 15.3033 9.02588 15.315 8.98428C15.3279 8.93834 15.3399 8.8923 15.3511 8.84604C15.5395 8.06995 15.4967 7.24083 15.2273 6.49441C15.2256 6.48983 15.224 6.48525 15.2224 6.48068C15.2128 6.45462 15.1921 6.43431 15.1648 6.42904C14.9978 6.39678 14.3295 6.3558 13.0459 7.32115C12.9392 7.40138 12.8011 7.4263 12.6727 7.38954C12.6519 7.38356 12.631 7.37769 12.6101 7.37192Z" fill="white" stroke="white" stroke-linecap="round" stroke-linejoin="round"/>
</svg>
