<svg width="22" height="22" viewBox="0 0 22 22" fill="none" xmlns="http://www.w3.org/2000/svg">
<path d="M11 0C4.92422 0 0 4.92422 0 11C0 17.0758 4.92422 22 11 22C17.0758 22 22 17.0758 22 11C22 4.92422 17.0758 0 11 0ZM17.8664 17.8621C16.9727 18.7559 15.9371 19.4562 14.7812 19.9418C13.5867 20.4488 12.3148 20.7023 11 20.7023C9.68945 20.7023 8.41758 20.4445 7.21875 19.9418C6.06289 19.452 5.02305 18.7516 4.13359 17.8621C3.23984 16.9684 2.53945 15.9328 2.05391 14.777C1.54688 13.5824 1.28906 12.3105 1.28906 11C1.28906 9.68945 1.54687 8.41758 2.04961 7.21875C2.53945 6.06289 3.23984 5.02305 4.1293 4.13359C5.02734 3.23984 6.06289 2.53945 7.21875 2.04961C8.41758 1.54687 9.68945 1.28906 11 1.28906C12.3105 1.28906 13.5824 1.54687 14.7812 2.04961C15.9371 2.53945 16.977 3.23984 17.8664 4.1293C18.7602 5.02305 19.4605 6.05859 19.9461 7.21445C20.4531 8.40898 20.7066 9.68086 20.7066 10.9957C20.7066 12.3062 20.4488 13.5781 19.9461 14.777C19.4563 15.9328 18.7559 16.9727 17.8664 17.8621Z" fill="white"/>
<path d="M7.92344 8.73984H5.7793V15.602H7.92344V8.73984Z" fill="white"/>
<path d="M6.80627 5.5C6.01565 5.5 5.49573 6.01133 5.49573 6.69023C5.49573 7.35625 5.99846 7.88047 6.7762 7.88047H6.79338C7.6012 7.88047 8.10393 7.35195 8.09963 6.69023C8.08245 6.01133 7.5969 5.5 6.80627 5.5Z" fill="white"/>
<path d="M13.7801 8.67539C12.5512 8.67539 11.7821 9.3457 11.6403 9.81836V8.73984H9.22974C9.25981 9.31133 9.22974 15.602 9.22974 15.602H11.6403V11.8937C11.6403 11.6832 11.6317 11.477 11.6918 11.3309C11.8551 10.9184 12.2118 10.4887 12.852 10.4887C13.6899 10.4887 14.068 11.1246 14.068 12.0527V15.602H16.5V11.7863C16.5 9.66367 15.3055 8.67539 13.7801 8.67539Z" fill="white"/>
</svg>
