<svg width="21" height="20" viewBox="0 0 21 20" fill="none" xmlns="http://www.w3.org/2000/svg">
<path d="M10.0006 9.71376H3.12505M2.93017 10.615L1.79423 14.0083C1.17209 15.8667 0.861019 16.7959 1.08426 17.368C1.27811 17.865 1.69449 18.2417 2.20827 18.3852C2.79989 18.5503 3.69348 18.1481 5.48066 17.344L16.9381 12.1881C18.6826 11.403 19.5548 11.0106 19.8243 10.4653C20.0586 9.99165 20.0586 9.43575 19.8243 8.96205C19.5548 8.4169 18.6826 8.02437 16.9381 7.23937L5.4609 2.07465C3.6791 1.27285 2.78822 0.871942 2.19717 1.0364C1.68388 1.17923 1.26755 1.55497 1.07302 2.05097C0.849013 2.62212 1.15676 3.54932 1.77227 5.40372L2.93237 8.89897C3.03808 9.21744 3.09094 9.37674 3.1118 9.53954C3.13032 9.68414 3.13013 9.83043 3.11125 9.97491C3.08996 10.1377 3.0367 10.2968 2.93017 10.615Z" stroke="#412C47" stroke-width="2" stroke-linecap="round" stroke-linejoin="round"/>
</svg>
