<svg width="18" height="13" viewBox="0 0 18 13" fill="none" xmlns="http://www.w3.org/2000/svg">
<path d="M10.4316 11.5382C10.0832 11.8612 10.0698 12.3978 10.4016 12.7368C10.7333 13.076 11.2846 13.0891 11.6329 12.7661L10.4316 11.5382ZM17.7296 7.11393C18.078 6.79097 18.0915 6.25435 17.7597 5.91533C17.4279 5.5762 16.8767 5.56309 16.5284 5.88606L17.7296 7.11393ZM16.5284 7.11393C16.8767 7.4369 17.4279 7.42378 17.7597 7.08466C18.0915 6.74564 18.078 6.20902 17.7296 5.88606L16.5284 7.11393ZM11.6329 0.233889C11.2846 -0.0890419 10.7333 -0.0759517 10.4016 0.263121C10.0698 0.602194 10.0832 1.13885 10.4316 1.46177L11.6329 0.233889ZM17.129 7.34782C17.61 7.34782 18 6.96822 18 6.49999C18 6.03177 17.61 5.65217 17.129 5.65217V7.34782ZM0.870967 5.65217C0.38995 5.65217 0 6.03177 0 6.49999C0 6.96822 0.38995 7.34782 0.870967 7.34782C0.870967 7.34782 0.870967 6.31436 0.870967 5.65217ZM11.6329 12.7661L17.7296 7.11393L16.5284 5.88606L10.4316 11.5382L11.6329 12.7661ZM17.7296 5.88606L11.6329 0.233889L10.4316 1.46177L16.5284 7.11393L17.7296 5.88606ZM17.129 5.65217C17.129 5.65217 7.22013 5.65217 0.870967 5.65217C0.870967 6.31436 0.870967 7.34782 0.870967 7.34782H17.129V5.65217Z" fill="white"/>
</svg>
