<svg width="61" height="60" viewBox="0 0 61 60" fill="none" xmlns="http://www.w3.org/2000/svg">
<path d="M50.2202 10.0043L30.2202 30.0043M50.2202 10.0043V21.2543M50.2202 10.0043H38.9702M47.7202 31.2543V42.0043C47.7202 44.8046 47.7202 46.2048 47.1752 47.2743C46.6959 48.2151 45.9309 48.9801 44.9902 49.4593C43.9207 50.0043 42.5204 50.0043 39.7202 50.0043H18.2202C15.4199 50.0043 14.0198 50.0043 12.9502 49.4593C12.0094 48.9801 11.2445 48.2151 10.7651 47.2743C10.2202 46.2048 10.2202 44.8046 10.2202 42.0043V20.5043C10.2202 17.7041 10.2202 16.3039 10.7651 15.2344C11.2445 14.2936 12.0094 13.5287 12.9502 13.0493C14.0198 12.5043 15.4199 12.5043 18.2202 12.5043H28.9702" stroke="white" stroke-width="7" stroke-linecap="round" stroke-linejoin="round"/>
</svg>
