<svg width="17" height="20" viewBox="0 0 17 20" fill="none" xmlns="http://www.w3.org/2000/svg">
<path fill-rule="evenodd" clip-rule="evenodd" d="M16.3636 6.36364C16.3636 4.85741 15.1426 3.63636 13.6364 3.63636H6.36363C4.8574 3.63636 3.63635 4.85741 3.63635 6.36364V17.2727C3.63635 18.779 4.8574 20 6.36363 20H13.6364C15.1426 20 16.3636 18.779 16.3636 17.2727V6.36364ZM14.5454 6.36364C14.5454 5.86156 14.1384 5.45455 13.6364 5.45455H6.36363C5.86155 5.45455 5.45453 5.86156 5.45453 6.36364V17.2727C5.45453 17.7748 5.86155 18.1818 6.36363 18.1818H13.6364C14.1384 18.1818 14.5454 17.7748 14.5454 17.2727V6.36364Z" fill="#412C47"/>
<path d="M2.72727 1.81818H11.8182C12.3203 1.81818 12.7273 1.41116 12.7273 0.909091C12.7273 0.407018 12.3203 0 11.8182 0H2.72727C1.22105 0 0 1.22105 0 2.72727V15.4545C0 15.9566 0.407018 16.3636 0.909091 16.3636C1.41116 16.3636 1.81818 15.9566 1.81818 15.4545V2.72727C1.81818 2.2252 2.2252 1.81818 2.72727 1.81818Z" fill="#412C47"/>
</svg>
